<?xml version="1.0" encoding="UTF-8" standalone="no"?>
<svg
   viewBox="0 0 37.795276 37.795276"
   version="1.1"
   id="svg226"
   sodipodi:docname="TfNSW_M.svg"
   width="37.795277"
   height="37.795277"
   inkscape:version="1.2.2 (b0a8486541, 2022-12-01)"
   xmlns:inkscape="http://www.inkscape.org/namespaces/inkscape"
   xmlns:sodipodi="http://sodipodi.sourceforge.net/DTD/sodipodi-0.dtd"
   xmlns="http://www.w3.org/2000/svg"
   xmlns:svg="http://www.w3.org/2000/svg">
  <defs
     id="defs230" />
  <sodipodi:namedview
     id="namedview228"
     pagecolor="#ffffff"
     bordercolor="#000000"
     borderopacity="0.25"
     inkscape:showpageshadow="2"
     inkscape:pageopacity="0.0"
     inkscape:pagecheckerboard="0"
     inkscape:deskcolor="#d1d1d1"
     showgrid="false"
     inkscape:zoom="1.5581251"
     inkscape:cx="266.66666"
     inkscape:cy="266.66666"
     inkscape:window-width="1854"
     inkscape:window-height="1011"
     inkscape:window-x="66"
     inkscape:window-y="32"
     inkscape:window-maximized="1"
     inkscape:current-layer="svg226" />
  <g
     id="g400"
     transform="matrix(0.07086632,0,0,0.07086632,-4.6771773e-5,-4.5354445e-5)"
     style="stroke-width:14.1111">
    <path
       id="path16"
       style="fill:#000000;fill-opacity:1;fill-rule:nonzero;stroke:none;stroke-width:1.88147"
       d="m 266.66533,6.4e-4 c -147.0483,0 -266.66466999998,119.63037 -266.66466999998,266.658 0,147.04257 119.61636999998,266.674 266.66466999998,266.674 147.05163,0 266.66733,-119.63143 266.66733,-266.674 0,-147.02763 -119.6157,-266.658 -266.66733,-266.658 z m 0,41.909229 c 123.93569,0 224.7541,100.834411 224.7541,224.748771 0,123.94636 -100.81841,224.74597 -224.7541,224.74597 -123.93436,0 -224.753308,-100.79961 -224.753308,-224.74597 0,-123.91436 100.818948,-224.748771 224.753308,-224.748771">
      <title
         id="title219">Ring</title>
    </path>
    <path
       id="path18"
       style="fill:#000000;fill-opacity:1;fill-rule:nonzero;stroke:none;stroke-width:1.88147"
       d="m 350.94778,399.81364 c -2.54266,0 -4.72265,-1.81599 -4.72265,-5.08532 V 234.52205 c 0,-15.98529 2.17999,-35.96391 3.26932,-47.58921 -0.72533,0 -0.364,0 -1.08933,0 l -58.48785,208.52214 c -0.728,2.18 -2.18,4.35866 -5.45065,4.35866 h -41.77723 c -3.26933,0 -4.35999,-1.81599 -5.08532,-3.99599 l -54.1292,-208.88481 c -0.36267,-0.728 -0.36267,-1.45333 -0.72667,-2.18 1.09067,13.4413 3.27066,29.78926 3.27066,49.04255 v 160.93293 c 0,3.26933 -2.54399,5.08532 -4.72265,5.08532 h -37.05458 c -2.54399,0 -4.72265,-2.17866 -4.72265,-5.08532 V 139.34229 c 0,-2.54266 1.45199,-5.44932 5.08532,-5.44932 h 62.48384 c 2.544,0 4.35999,1.08933 5.44932,3.99733 l 37.41858,131.50633 c 7.26531,25.79327 13.80396,58.12519 16.34795,83.91713 2.17867,-25.79194 9.80798,-57.39719 17.79996,-84.64379 11.62397,-37.05458 22.16128,-73.74515 33.42258,-110.79972 1.81466,-6.53999 3.99466,-13.44264 5.81199,-19.97995 2.17999,-6.17732 17.07329,-3.99733 25.79193,-3.99733 h 39.59724 c 3.63466,0 5.08665,2.18 5.08665,4.72266 v 256.11269 c 0,3.26933 -2.17999,5.08532 -4.35865,5.08532 h -38.50791">
      <title
         id="title222">M</title>
    </path>
  </g>
</svg>
