<?xml version="1.0" encoding="UTF-8" standalone="no"?>
<svg
   viewBox="0 0 18.897638 18.897638"
   version="1.1"
   id="svg14"
   sodipodi:docname="TfNSW_F.svg"
   width="18.897638"
   height="18.897638"
   inkscape:version="1.2.2 (b0a8486541, 2022-12-01)"
   xmlns:inkscape="http://www.inkscape.org/namespaces/inkscape"
   xmlns:sodipodi="http://sodipodi.sourceforge.net/DTD/sodipodi-0.dtd"
   xmlns="http://www.w3.org/2000/svg"
   xmlns:svg="http://www.w3.org/2000/svg">
  <defs
     id="defs18" />
  <sodipodi:namedview
     id="namedview16"
     pagecolor="#ffffff"
     bordercolor="#000000"
     borderopacity="0.25"
     inkscape:showpageshadow="2"
     inkscape:pageopacity="0.0"
     inkscape:pagecheckerboard="0"
     inkscape:deskcolor="#d1d1d1"
     showgrid="false"
     inkscape:zoom="1.6275001"
     inkscape:cx="257.14284"
     inkscape:cy="268.20275"
     inkscape:window-width="1854"
     inkscape:window-height="1011"
     inkscape:window-x="66"
     inkscape:window-y="32"
     inkscape:window-maximized="1"
     inkscape:current-layer="svg14" />
  <path
     id="path16"
     style="fill:#000000;fill-opacity:1;fill-rule:nonzero;stroke:none;stroke-width:0.133333"
     d="M 9.4487716,0 C 4.2383858,0 0,4.2388819 0,9.4485356 c 0,5.2101824 4.2383858,9.4491024 9.4487716,9.4491024 5.2105034,0 9.4488664,-4.23892 9.4488664,-9.4491024 C 18.897638,4.2388819 14.659275,0 9.4487716,0 Z m 0,1.4849763 c 4.3914334,0 7.9637484,3.572882 7.9637484,7.9635593 0,4.3918104 -3.572315,7.9634594 -7.9637484,7.9634594 -4.3913858,0 -7.9637197,-3.571649 -7.9637197,-7.9634594 0,-4.3906773 3.5723339,-7.9635593 7.9637197,-7.9635593">
    <title
       id="title7">Ring</title>
  </path>
  <path
     id="path-3"
     style="fill:#000000;fill-opacity:1;fill-rule:nonzero;stroke:none;stroke-width:0.133333"
     d="m 7.2736819,14.566649 c -0.0942,0 -0.1882915,-0.05387 -0.1882915,-0.188141 V 4.7239796 h 5.3112706 c 0.107759,0 0.201761,0.067068 0.201761,0.1882723 v 1.304296 c 0,0.094243 -0.04052,0.2150315 -0.188201,0.2150315 H 9.0215765 V 9.013441 h 3.1061055 c 0.107707,0 0.174883,0.080811 0.174883,0.2018406 v 1.2636944 c 0,0.107712 -0.06718,0.188486 -0.174883,0.188486 H 9.0215765 v 3.711046 c 0,0.120936 -0.094285,0.188141 -0.1748315,0.188141 H 7.2736819">
    <title
       id="title10">F</title>
  </path>
</svg>
