<?xml version="1.0" encoding="UTF-8" standalone="no"?>
<svg
   viewBox="0 0 37.795276 37.795269"
   version="1.1"
   id="svg14"
   sodipodi:docname="TfNSW_T.svg"
   xml:space="preserve"
   inkscape:version="1.2.2 (b0a8486541, 2022-12-01)"
   width="37.795277"
   height="37.795269"
   xmlns:inkscape="http://www.inkscape.org/namespaces/inkscape"
   xmlns:sodipodi="http://sodipodi.sourceforge.net/DTD/sodipodi-0.dtd"
   xmlns="http://www.w3.org/2000/svg"
   xmlns:svg="http://www.w3.org/2000/svg"><defs
     id="defs18" /><sodipodi:namedview
     id="namedview16"
     pagecolor="#ffffff"
     bordercolor="#000000"
     borderopacity="0.25"
     inkscape:showpageshadow="2"
     inkscape:pageopacity="0.0"
     inkscape:pagecheckerboard="0"
     inkscape:deskcolor="#d1d1d1"
     showgrid="false"
     inkscape:zoom="1.1508163"
     inkscape:cx="314.12484"
     inkscape:cy="-243.74002"
     inkscape:window-width="1854"
     inkscape:window-height="1011"
     inkscape:window-x="66"
     inkscape:window-y="32"
     inkscape:window-maximized="1"
     inkscape:current-layer="svg14" /><path
     id="path-5"
     style="fill:#000000;fill-opacity:1;fill-rule:nonzero;stroke:none;stroke-width:0.133333"
     d="M 18.897543,0 C 8.4767716,0 0,8.47776 0,18.89707 c 0,10.42036 8.4767716,18.8982 18.897543,18.8982 10.421008,0 18.897732,-8.47784 18.897732,-18.8982 C 37.795275,8.47776 29.318551,0 18.897543,0 Z m 0,2.96995 c 8.782865,0 15.927495,7.14577 15.927495,15.92712 0,8.78362 -7.14463,15.92692 -15.927495,15.92692 -8.782771,0 -15.9274392,-7.1433 -15.9274392,-15.92692 0,-8.78135 7.1446682,-15.92712 15.9274392,-15.92712"><title
       id="title7">Ring</title></path><path
     id="path18"
     style="fill:#000000;fill-opacity:1;fill-rule:nonzero;stroke:none;stroke-width:0.133333"
     d="m 17.296866,29.9205 c -0.160942,0 -0.349654,-0.1613 -0.349654,-0.37624 V 13.6235 h -5.189546 c -0.242145,0 -0.349512,-0.24222 -0.349512,-0.40329 v -2.60824 c 0,-0.16186 0.107367,-0.37651 0.349512,-0.37651 h 14.280208 c 0.241512,0 0.349719,0.21465 0.349719,0.37651 v 2.60824 c 0,0.16107 -0.108207,0.40329 -0.349719,0.40329 H 20.84776 v 15.92076 c 0,0.21494 -0.162,0.37624 -0.377149,0.37624 h -3.173745"><title
       id="title10">T</title></path></svg>
