<?xml version="1.0" encoding="UTF-8" standalone="no"?>
<svg
   viewBox="0 0 18.897638 18.897638"
   version="1.1"
   id="svg14"
   sodipodi:docname="TfNSW_T.svg"
   xml:space="preserve"
   inkscape:version="1.2.2 (b0a8486541, 2022-12-01)"
   width="18.897638"
   height="18.897638"
   xmlns:inkscape="http://www.inkscape.org/namespaces/inkscape"
   xmlns:sodipodi="http://sodipodi.sourceforge.net/DTD/sodipodi-0.dtd"
   xmlns="http://www.w3.org/2000/svg"
   xmlns:svg="http://www.w3.org/2000/svg"><defs
     id="defs18" /><sodipodi:namedview
     id="namedview16"
     pagecolor="#ffffff"
     bordercolor="#000000"
     borderopacity="0.25"
     inkscape:showpageshadow="2"
     inkscape:pageopacity="0.0"
     inkscape:pagecheckerboard="0"
     inkscape:deskcolor="#d1d1d1"
     showgrid="false"
     inkscape:zoom="1.1508163"
     inkscape:cx="307.17326"
     inkscape:cy="-244.60898"
     inkscape:window-width="1854"
     inkscape:window-height="1011"
     inkscape:window-x="66"
     inkscape:window-y="32"
     inkscape:window-maximized="1"
     inkscape:current-layer="svg14" /><path
     id="path-5"
     style="fill:#000000;fill-opacity:1;fill-rule:nonzero;stroke:none;stroke-width:0.133333"
     d="M 9.4487717,0 C 4.2383859,0 0,4.2388806 0,9.4485363 c 0,5.2101807 4.2383859,9.4491017 9.4487717,9.4491017 5.2105043,0 9.4488663,-4.238921 9.4488663,-9.4491017 C 18.897638,4.2388806 14.659276,0 9.4487717,0 Z m 0,1.4849752 c 4.3914323,0 7.9637473,3.5728855 7.9637473,7.9635611 0,4.3918107 -3.572315,7.9634607 -7.9637473,7.9634607 -4.3913856,0 -7.9637198,-3.57165 -7.9637198,-7.9634607 0,-4.3906756 3.5723342,-7.9635611 7.9637198,-7.9635611"><title
       id="title7">Ring</title></path><path
     id="path18"
     style="fill:#000000;fill-opacity:1;fill-rule:nonzero;stroke:none;stroke-width:0.133333"
     d="m 8.6484332,14.960252 c -0.080471,0 -0.174827,-0.08065 -0.174827,-0.18812 V 6.811751 H 5.8788331 c -0.1210725,0 -0.174756,-0.1211101 -0.174756,-0.2016451 V 5.3059857 c 0,-0.08093 0.053683,-0.188255 0.174756,-0.188255 h 7.1401039 c 0.120756,0 0.17486,0.107325 0.17486,0.188255 v 1.3041202 c 0,0.080535 -0.0541,0.2016451 -0.17486,0.2016451 H 10.42388 v 7.960381 c 0,0.10747 -0.081,0.18812 -0.188574,0.18812 H 8.6484332"><title
       id="title10">T</title></path></svg>
